<?xml version="1.0" standalone="no"?>
<!DOCTYPE svg PUBLIC "-//W3C//DTD SVG 20010904//EN"
 "http://www.w3.org/TR/2001/REC-SVG-20010904/DTD/svg10.dtd">
<svg version="1.0" xmlns="http://www.w3.org/2000/svg"
 width="512.000000pt" height="512.000000pt" viewBox="0 0 512.000000 512.000000"
 preserveAspectRatio="xMidYMid meet">
<metadata>
Created by potrace 1.14, written by Peter Selinger 2001-2017
</metadata>
<g transform="translate(0.000000,512.000000) scale(0.100000,-0.100000)"
fill="#000000" stroke="none">
<path d="M304 4988 c3 -15 0 -31 -6 -34 -6 -4 -8 -3 -5 2 3 6 2 16 -4 24 -7
12 -9 11 -10 -5 -1 -11 -1 -24 0 -29 1 -5 -5 -4 -13 4 -9 7 -16 9 -16 5 0 -4
-7 -2 -15 5 -10 9 -15 9 -15 1 0 -10 14 -15 33 -12 5 1 5 -4 2 -10 -4 -6 -16
-8 -27 -6 -16 5 -17 3 -6 -11 11 -14 10 -15 -5 -9 -10 4 -16 3 -12 -2 3 -5 1
-12 -5 -16 -15 -10 -12 -23 8 -28 16 -4 16 -5 0 -6 -10 0 -18 -6 -18 -12 0 -5
4 -8 9 -4 5 3 13 0 17 -7 4 -7 4 -10 -1 -6 -4 4 -15 2 -23 -5 -11 -8 -14 -8
-9 0 4 6 3 14 -2 18 -6 3 -8 -6 -5 -21 3 -14 -1 -33 -8 -42 -7 -9 -8 -13 -2
-9 6 3 20 0 30 -8 18 -15 18 -15 -1 -8 -17 6 -18 5 -7 -9 9 -11 10 -18 2 -23
-6 -4 -7 -13 -1 -23 4 -9 6 -23 4 -30 -3 -7 3 -20 13 -28 17 -14 17 -15 2 -10
-23 7 -24 -10 -2 -18 9 -4 14 -9 11 -13 -4 -3 -2 -15 4 -26 7 -13 7 -17 1 -13
-6 3 -13 2 -17 -4 -3 -5 0 -10 8 -10 9 0 14 -11 14 -31 0 -23 -3 -27 -9 -15
-5 9 -7 20 -4 24 3 5 -1 9 -7 9 -10 0 -11 -8 -3 -34 6 -18 16 -33 23 -33 6 0
14 -4 17 -9 3 -4 -5 -7 -18 -6 -14 2 -23 -2 -23 -11 0 -9 4 -10 12 -4 7 6 11
3 12 -11 1 -11 -2 -17 -8 -14 -5 4 -5 -3 0 -17 6 -15 5 -31 -1 -42 -5 -10 -7
-20 -4 -23 3 -4 6 0 6 8 0 12 2 12 9 0 6 -9 8 0 6 26 -1 23 2 47 6 55 6 9 8 5
5 -12 -2 -14 2 -31 8 -39 8 -11 8 -13 -1 -7 -16 9 -16 1 -2 -26 8 -15 8 -19 0
-14 -6 4 -11 3 -11 -3 0 -5 8 -15 18 -20 9 -6 12 -11 6 -11 -7 0 -10 -16 -9
-40 2 -24 -1 -38 -7 -34 -6 4 -4 -4 3 -17 12 -23 11 -23 -7 -9 -14 12 -14 9 4
-14 18 -24 20 -32 10 -44 -11 -13 -10 -15 4 -9 12 4 15 2 11 -9 -3 -8 -1 -20
3 -27 5 -7 1 -4 -9 7 -19 20 -19 20 -15 1 1 -11 12 -26 23 -33 15 -10 16 -12
3 -8 -10 3 -20 1 -23 -5 -4 -5 -3 -8 2 -7 4 2 18 -4 29 -12 19 -14 20 -17 6
-30 -14 -13 -15 -12 -9 3 8 21 -11 33 -26 17 -9 -10 -9 -11 0 -6 9 5 13 0 13
-12 0 -11 7 -23 16 -26 8 -3 13 -10 10 -15 -4 -5 0 -12 6 -14 10 -4 10 -6 1
-6 -8 -1 -10 -8 -6 -18 6 -15 4 -16 -8 -6 -13 10 -16 10 -16 -2 0 -8 4 -12 9
-9 4 3 8 0 8 -6 0 -6 6 -8 13 -5 6 4 1 -2 -13 -14 l-25 -20 25 5 c20 5 22 3
10 -5 -13 -10 -13 -11 0 -11 13 0 13 -1 0 -10 -10 -6 -11 -10 -2 -10 6 0 12
-5 12 -11 0 -5 -6 -7 -12 -3 -9 5 -8 2 1 -10 11 -13 16 -14 23 -4 7 10 9 10 5
-2 -2 -8 -11 -14 -19 -12 -8 1 -15 -4 -15 -13 0 -8 4 -12 9 -9 4 3 8 -2 8 -10
0 -9 5 -16 12 -16 6 0 8 -3 5 -6 -4 -4 -13 -1 -22 6 -10 8 -15 9 -15 1 0 -6 4
-11 8 -11 5 0 9 -7 9 -15 0 -8 -5 -15 -11 -15 -5 0 -1 -6 9 -14 11 -8 26 -12
35 -9 10 3 9 1 -3 -7 -14 -9 -22 -9 -33 1 -12 10 -13 9 -8 -5 6 -15 18 -20 37
-17 5 1 6 -3 3 -8 -4 -5 -3 -11 1 -14 5 -2 3 -2 -4 -1 -7 2 -15 -2 -19 -8 -4
-6 -3 -8 3 -5 6 4 17 -1 24 -10 12 -14 11 -15 -11 -10 -14 4 -19 4 -12 1 6 -3
12 -10 12 -15 0 -6 -5 -7 -12 -3 -7 4 -8 3 -4 -4 4 -6 13 -9 20 -6 8 3 17 0
22 -7 4 -8 3 -10 -4 -5 -7 4 -12 2 -12 -4 0 -6 -4 -9 -9 -5 -5 3 -13 1 -16 -5
-4 -6 -3 -10 2 -9 29 5 53 -24 31 -37 -6 -4 -8 -3 -4 4 3 6 1 14 -5 18 -7 4
-9 3 -5 -4 3 -6 -2 -13 -11 -15 -17 -4 -17 -5 0 -6 10 0 15 -5 12 -11 -9 -14
8 -12 25 3 12 10 12 9 3 -3 -6 -8 -10 -26 -9 -40 1 -14 -1 -33 -6 -42 -5 -10
-4 -20 4 -24 7 -5 8 -3 3 6 -5 9 -4 11 4 6 16 -10 4 -26 -14 -19 -8 3 -15 1
-15 -4 0 -5 10 -9 21 -10 30 -3 44 -19 24 -27 -9 -3 -13 -2 -10 4 3 6 2 10 -3
10 -5 0 -9 -11 -9 -25 0 -14 4 -25 9 -25 5 0 6 5 3 10 -10 16 1 11 16 -7 10
-11 10 -14 2 -9 -8 4 -13 2 -13 -4 0 -6 -4 -9 -8 -6 -5 3 -9 -1 -9 -9 0 -8 3
-14 6 -13 19 2 28 -4 28 -17 0 -11 -4 -12 -13 -4 -8 7 -14 6 -20 -2 -4 -8 -3
-9 4 -5 11 6 16 -6 13 -26 0 -5 4 -8 10 -8 8 0 8 -5 -1 -15 -15 -18 0 -20 20
-2 8 6 4 -1 -10 -17 -18 -21 -20 -28 -8 -23 10 3 22 -1 30 -11 12 -16 11 -16
-6 -2 -18 14 -19 13 -14 -13 5 -24 3 -26 -11 -15 -14 12 -15 11 -2 -5 13 -16
13 -20 0 -28 -8 -5 -9 -9 -4 -9 6 0 17 6 24 13 11 10 12 7 6 -13 -4 -14 -11
-30 -16 -36 -10 -12 -2 -24 15 -24 6 0 4 5 -4 10 -13 8 -12 10 3 10 12 0 16 4
11 13 -4 6 -3 9 1 5 5 -5 9 -20 11 -35 1 -16 0 -23 -3 -16 -2 7 -11 9 -18 7
-11 -5 -12 -9 -2 -19 7 -7 16 -10 21 -7 5 3 6 0 2 -7 -6 -9 -11 -9 -21 -1 -9
8 -14 6 -19 -5 -3 -9 -2 -13 4 -10 5 3 18 1 27 -4 16 -10 17 -10 1 -11 -9 0
-20 -4 -23 -10 -3 -6 1 -7 9 -4 12 4 16 0 16 -16 0 -13 4 -19 12 -14 7 4 8 3
4 -5 -4 -6 -11 -9 -15 -7 -4 3 -8 -1 -8 -9 0 -8 4 -12 8 -10 4 3 10 -2 13 -11
3 -8 2 -12 -3 -9 -5 3 -12 1 -16 -5 -3 -5 2 -10 11 -10 10 0 14 -3 11 -7 -4
-3 -1 -13 5 -22 7 -9 2 -7 -11 4 l-24 20 13 -25 c16 -29 16 -30 -2 -42 -10 -8
-10 -9 2 -5 8 2 14 11 12 18 -2 8 0 10 5 6 10 -11 12 -57 1 -51 -4 3 -8 1 -8
-5 0 -5 5 -11 11 -13 14 -5 19 -79 6 -96 -7 -9 -6 -11 5 -7 9 4 15 0 15 -9 0
-8 -4 -13 -9 -10 -4 3 -8 1 -8 -5 0 -5 8 -12 18 -14 14 -4 14 -5 -3 -6 -18 -1
-18 -2 4 -17 16 -12 20 -19 12 -27 -15 -15 -14 -30 1 -21 7 4 8 3 4 -5 -6 -9
-11 -9 -21 -1 -15 13 -16 -5 -1 -29 5 -8 3 -17 -5 -23 -11 -8 -10 -9 4 -4 14
5 16 1 11 -22 -4 -21 -3 -24 5 -12 9 12 11 10 9 -10 -2 -16 2 -24 10 -22 6 1
12 -2 12 -8 0 -5 -4 -10 -10 -10 -5 0 -10 -11 -10 -25 0 -14 -5 -25 -12 -25
-6 0 -8 -3 -5 -6 4 -4 13 -1 21 5 11 9 16 9 22 0 4 -7 3 -9 -4 -5 -6 3 -13 -3
-17 -14 -5 -14 0 -27 17 -41 l23 -20 -35 16 c-25 11 -30 12 -18 2 10 -8 14
-18 10 -22 -4 -5 -1 -5 6 0 11 6 13 -5 9 -54 -2 -36 0 -64 6 -68 6 -3 7 -1 3
5 -4 7 -3 12 3 12 5 0 9 -15 8 -32 -2 -27 2 -33 17 -31 16 1 14 -3 -10 -24
-16 -13 -23 -22 -16 -18 6 3 12 1 12 -5 0 -6 4 -9 8 -6 5 3 7 -5 6 -17 -1 -12
-3 -30 -3 -40 -1 -10 -5 -16 -10 -12 -5 3 -12 1 -15 -4 -7 -10 13 -9 30 1 6 4
11 1 11 -7 0 -8 -4 -12 -8 -9 -4 2 -10 0 -13 -5 -4 -5 3 -12 14 -16 18 -6 18
-8 5 -21 -8 -9 -13 -19 -10 -24 3 -5 -1 -11 -7 -14 -8 -3 -7 -5 2 -3 9 1 16
-2 16 -8 0 -5 -7 -9 -16 -7 -11 2 -10 -1 3 -9 14 -8 16 -14 7 -24 -10 -11 -8
-13 9 -10 11 2 24 -1 27 -7 4 -6 3 -9 -2 -6 -5 3 -18 2 -29 -3 -15 -6 -16 -8
-4 -8 9 -1 23 -9 30 -18 11 -13 11 -15 1 -9 -9 6 -12 3 -10 -10 2 -13 -3 -19
-15 -17 -18 1 -18 0 0 -17 10 -9 22 -15 27 -12 5 3 6 0 2 -7 -6 -8 -12 -9 -20
-2 -9 8 -13 7 -13 -4 0 -7 4 -13 8 -12 4 1 8 -2 9 -8 1 -5 11 -15 23 -22 27
-15 4 -17 -26 -2 -20 9 -20 9 -5 -4 10 -8 14 -18 10 -22 -4 -5 1 -5 10 -2 13
4 15 2 11 -10 -5 -11 -3 -14 6 -8 10 6 11 3 2 -12 -6 -11 -7 -24 -3 -28 4 -5
2 -5 -5 -1 -7 4 -10 13 -6 21 3 8 1 15 -5 15 -11 0 -10 -14 3 -42 4 -10 12
-15 19 -11 6 4 5 -1 -3 -10 -7 -9 -17 -14 -22 -11 -5 3 -6 -2 -2 -11 3 -9 9
-12 12 -7 8 11 42 12 35 0 -3 -5 -8 -6 -12 -4 -4 2 -13 -2 -20 -10 -9 -10 -9
-14 -1 -14 6 0 8 -7 5 -16 -3 -8 -2 -12 4 -9 6 3 10 -1 10 -10 0 -10 -5 -13
-12 -9 -7 4 -10 4 -6 -1 4 -4 2 -15 -5 -24 -10 -14 -10 -14 4 -3 14 10 18 10
22 -2 4 -9 1 -18 -5 -22 -7 -5 -8 -2 -3 6 5 9 4 11 -4 6 -6 -4 -9 -12 -5 -17
3 -5 9 -7 14 -4 5 3 14 -3 19 -14 8 -14 7 -22 -4 -31 -17 -14 -20 -30 -4 -30
5 0 7 4 4 10 -3 6 1 7 10 3 11 -4 13 -8 6 -12 -17 -11 -20 -70 -5 -86 11 -10
11 -15 1 -18 -8 -4 -8 -6 2 -6 11 -1 10 -5 -5 -16 -18 -13 -18 -14 6 -8 24 6
24 6 7 -11 -15 -15 -16 -36 -1 -36 3 0 2 5 -1 10 -3 5 -1 10 4 10 16 0 13 -20
-3 -26 -12 -5 -12 -8 2 -24 8 -11 20 -16 25 -13 5 3 1 -6 -8 -21 -9 -14 -22
-23 -28 -19 -6 3 -7 1 -3 -5 5 -9 13 -9 26 -2 29 16 37 12 12 -6 -12 -8 -19
-20 -16 -26 5 -8 1 -9 -12 -4 -14 5 -16 4 -7 -5 12 -12 37 -3 29 10 -3 4 1 8
9 8 10 0 12 -4 5 -12 -13 -15 -9 -77 5 -87 6 -5 3 -8 -6 -8 -9 0 -20 -8 -24
-17 -5 -15 -4 -16 6 -6 18 18 28 16 24 -4 -2 -10 -4 -22 -4 -26 -1 -5 -7 -5
-13 -1 -10 6 -10 5 -1 -8 7 -8 9 -19 5 -23 -4 -5 -2 -5 5 -1 6 3 14 2 18 -4 6
-9 -7 -14 -27 -11 -13 2 -9 -6 9 -20 14 -12 16 -12 8 0 -5 10 -4 12 3 7 9 -5
7 -15 -4 -34 -12 -20 -12 -22 -1 -9 14 17 15 16 20 -3 3 -11 0 -23 -5 -27 -7
-4 -8 -1 -3 7 5 8 4 11 -3 6 -6 -4 -8 -14 -5 -23 5 -12 3 -14 -7 -8 -9 5 -11
4 -6 -4 6 -9 11 -9 21 -1 9 8 14 6 19 -5 3 -9 2 -13 -4 -10 -6 3 -10 3 -11 -2
0 -4 -2 -16 -4 -26 -2 -9 1 -15 6 -11 5 3 7 9 5 13 -3 4 1 8 8 8 7 0 13 -6 13
-13 0 -7 -4 -11 -9 -8 -4 3 -8 2 -9 -3 0 -4 -2 -19 -3 -31 -2 -13 4 -31 12
-39 13 -13 13 -16 1 -24 -10 -6 -10 -9 -1 -9 6 0 12 -5 12 -11 0 -5 -4 -8 -9
-4 -5 3 -13 1 -16 -5 -4 -6 -3 -10 2 -9 4 1 16 -1 26 -6 13 -6 15 -10 7 -15
-8 -5 -9 -13 -4 -21 4 -8 9 -22 9 -31 1 -14 -1 -15 -12 -6 -11 9 -12 7 -7 -7
6 -14 4 -16 -6 -10 -8 5 -11 4 -6 -3 4 -6 13 -9 20 -6 7 3 19 -3 27 -12 12
-15 12 -17 0 -9 -11 6 -13 4 -8 -11 7 -18 6 -18 -7 -1 -7 9 -17 17 -21 17 -4
0 -2 -7 5 -15 6 -8 9 -19 5 -26 -5 -8 0 -9 16 -4 19 5 21 4 9 -4 -12 -8 -12
-11 -1 -11 11 0 11 -3 0 -17 -8 -9 -9 -14 -4 -11 6 4 17 -3 24 -15 11 -18 11
-20 0 -10 -21 20 -31 15 -12 -5 14 -14 21 -16 32 -8 12 9 13 7 8 -7 -4 -10 -3
-16 1 -14 10 7 32 -19 24 -29 -4 -4 -1 -4 6 0 10 6 10 11 1 22 -6 8 -10 17 -7
19 3 3 11 -6 18 -20 17 -32 58 -36 52 -5 -2 11 0 10 8 -3 6 -9 16 -15 21 -11
7 4 6 10 0 18 -8 9 -7 13 3 13 7 0 13 -9 12 -20 -1 -11 6 -22 14 -24 13 -4 13
-3 0 6 -13 10 -13 11 0 12 45 3 62 7 73 18 9 10 9 12 -3 9 -8 -2 -18 -7 -22
-13 -4 -5 -10 -6 -15 -2 -11 12 16 25 44 22 20 -2 23 1 18 19 -5 15 -4 17 3 7
6 -8 12 -10 16 -3 4 6 -2 16 -11 21 -15 9 -13 10 10 7 22 -4 27 -2 23 9 -3 8
0 17 6 21 6 4 8 3 4 -4 -3 -6 -2 -13 3 -17 10 -6 5 40 -6 58 -3 6 -2 7 4 4 5
-3 10 -1 11 6 0 7 3 22 6 35 3 12 2 20 -3 18 -4 -3 -13 5 -20 16 -11 18 -11
20 3 15 8 -3 18 -1 22 5 4 6 3 8 -3 5 -6 -4 -14 0 -17 9 -4 9 -2 13 5 8 6 -3
4 5 -6 19 -10 15 -12 28 -6 31 13 8 5 69 -12 81 -11 9 -14 26 -7 40 1 3 3 11
4 18 1 6 8 11 16 9 8 -2 11 0 7 4 -11 11 -38 14 -32 3 4 -5 -1 -6 -9 -3 -13 5
-12 9 7 26 16 15 18 18 5 14 -10 -3 -20 -1 -23 4 -4 6 2 10 12 10 17 1 17 2 1
13 -11 9 -14 18 -7 28 5 8 9 21 9 29 0 13 -1 13 -10 0 -7 -11 -8 -6 -5 15 2
17 5 30 6 30 1 0 3 10 4 23 2 20 -6 27 -28 23 -5 -1 -6 3 -2 9 3 6 10 8 14 6
4 -3 8 1 8 9 0 8 -4 12 -9 9 -4 -3 -8 0 -8 6 0 6 7 13 15 16 8 4 15 11 15 17
0 6 -3 7 -7 4 -3 -4 -13 -1 -22 6 -14 11 -14 10 -2 -6 9 -11 10 -17 2 -17 -6
0 -11 3 -12 8 -5 47 -4 71 2 90 5 12 5 22 0 22 -5 0 -11 -6 -14 -12 -2 -7 -4
3 -3 24 1 20 5 34 9 31 5 -3 6 -11 4 -17 -3 -7 1 -13 8 -13 10 0 11 6 2 24 -5
13 -15 23 -21 23 -5 0 -1 7 10 15 13 10 14 13 3 10 -10 -4 -16 0 -16 9 0 8 4
13 9 10 4 -3 8 -1 8 4 0 5 -10 12 -22 15 -16 5 -19 9 -11 19 12 15 23 69 14
63 -4 -2 -13 0 -21 6 -12 7 -10 9 7 9 12 0 24 4 27 9 3 4 -9 7 -27 5 -22 -3
-28 -1 -17 5 8 6 18 7 22 5 4 -3 5 3 1 12 -5 13 -3 15 8 9 8 -5 2 3 -13 18
-34 32 -34 35 -6 47 l23 9 -22 0 c-26 1 -38 17 -22 27 8 4 9 3 5 -4 -5 -8 -2
-10 9 -6 14 6 14 8 -2 21 -10 8 -12 12 -5 8 6 -3 12 -1 12 4 0 6 -4 11 -10 11
-5 0 -10 5 -10 11 0 5 4 8 9 4 6 -3 8 4 6 15 -6 30 -15 41 -27 34 -7 -4 -8 -2
-4 5 4 6 12 9 17 6 5 -3 6 1 3 10 -4 8 -1 21 5 29 9 11 7 18 -11 32 -21 18
-35 74 -18 74 4 0 11 7 14 16 6 15 4 15 -11 3 -15 -12 -16 -12 -10 4 3 9 2 17
-3 17 -5 0 -7 12 -4 26 3 14 1 23 -4 20 -5 -3 -9 1 -9 8 0 8 6 12 14 9 7 -3
13 0 13 6 0 6 -3 11 -7 11 -5 0 -13 11 -20 25 -6 14 -7 23 -2 19 8 -4 14 25
10 49 0 4 4 7 10 7 5 0 7 5 4 10 -11 17 -24 11 -20 -10 4 -21 -9 -27 -20 -10
-3 5 -2 10 4 10 12 0 8 24 -7 43 -9 10 -10 17 -2 22 10 6 11 5 14 -14 0 -5 4
-12 8 -16 3 -4 5 1 3 12 -2 10 -4 23 -4 30 -1 8 -8 10 -18 6 -16 -6 -16 -5 -4
11 8 9 20 15 28 12 8 -4 11 -1 8 5 -4 6 -13 8 -21 5 -16 -6 -19 10 -4 19 5 3
7 11 5 18 -5 14 2 26 29 47 12 9 17 10 12 3 -4 -7 -2 -13 3 -13 6 0 11 5 11
11 0 5 5 7 12 3 8 -5 9 -2 4 11 -5 15 -4 16 8 6 13 -11 15 -9 11 9 -4 22 -4
22 17 4 12 -11 18 -14 15 -7 -8 13 1 43 14 43 4 0 6 -7 3 -15 -4 -8 -1 -15 6
-15 6 0 9 3 7 8 -3 4 -1 18 4 31 7 19 12 21 23 12 11 -9 16 -9 22 0 5 8 3 9
-6 4 -9 -6 -11 -4 -6 4 5 7 15 10 23 7 8 -3 11 -1 8 4 -3 6 1 10 9 10 9 0 16
-6 16 -12 0 -7 7 -2 16 10 8 12 20 19 26 16 7 -4 8 -2 4 5 -6 9 -12 9 -24 -1
-15 -12 -16 -11 -3 5 8 9 16 15 19 12 3 -2 11 3 19 13 8 9 12 12 9 6 -4 -8 5
-11 22 -11 16 1 29 7 29 14 0 7 -5 9 -10 6 -6 -3 -7 -1 -3 5 4 7 12 12 18 12
6 0 21 8 32 18 18 15 19 15 8 0 -12 -15 -11 -17 7 -15 11 0 17 5 15 9 -3 4 2
8 10 8 9 0 16 -5 16 -12 0 -6 3 -9 6 -6 3 4 0 16 -6 28 -9 16 -9 20 -1 15 7
-4 18 -1 26 5 8 7 15 9 15 4 0 -5 5 -2 10 6 8 13 10 13 10 -1 0 -12 8 -16 24
-15 13 0 23 3 21 6 -2 3 3 16 11 30 l14 25 -4 -28 c-3 -15 -1 -25 5 -22 5 4 9
13 9 20 0 10 6 12 18 8 15 -6 15 -5 3 10 -12 15 -12 17 3 11 9 -3 16 -9 16
-13 0 -4 6 -8 14 -8 8 0 12 6 9 13 -2 6 1 15 8 20 7 4 10 3 5 -4 -3 -6 -2 -13
3 -16 5 -3 11 0 14 8 4 10 52 16 52 7 0 -2 8 -4 18 -6 9 -2 15 1 11 6 -3 5 0
9 5 9 6 0 11 5 11 11 0 8 -4 8 -13 1 -9 -8 -17 -8 -27 0 -12 8 -12 9 2 4 10
-3 20 -1 24 5 4 7 10 7 18 0 8 -7 21 -6 39 4 15 8 27 10 27 4 0 -5 -5 -9 -11
-9 -5 0 -7 -5 -3 -11 5 -8 10 -6 16 5 5 9 14 16 19 16 6 0 7 -6 3 -12 -6 -10
-5 -10 8 -1 8 7 18 10 21 6 4 -3 7 3 7 15 0 12 5 22 11 22 6 0 9 -7 6 -15 -4
-8 -1 -17 5 -21 7 -4 8 -3 4 4 -4 7 -2 12 4 12 7 0 10 6 7 14 -4 10 0 12 15 8
16 -4 19 -2 13 8 -5 9 -4 11 4 6 6 -4 9 -11 6 -16 -3 -5 0 -12 6 -16 8 -4 9
-3 5 4 -10 16 6 15 24 0 8 -7 6 -2 -5 11 -11 14 -14 21 -8 17 19 -11 53 -16
53 -7 0 4 -5 12 -11 18 -9 9 -2 9 25 3 23 -5 38 -4 43 3 3 5 1 7 -5 3 -6 -3
-13 -2 -16 3 -4 5 2 8 11 6 10 -1 23 0 28 4 18 10 35 9 35 -2 0 -7 4 -6 10 3
6 9 5 17 -3 22 -9 6 -9 8 0 8 6 0 15 -5 18 -10 4 -6 11 -8 16 -4 5 3 7 9 4 14
-3 5 -1 11 4 14 10 7 9 -13 -2 -31 -4 -6 -3 -15 3 -18 6 -4 9 -1 8 6 -2 7 3
13 10 14 7 0 17 6 21 14 7 10 10 11 16 1 6 -10 11 -9 22 5 7 11 13 13 13 6 0
-7 5 -9 10 -6 8 5 7 12 -2 22 -12 15 -11 15 9 3 12 -8 19 -19 16 -25 -4 -5 6
1 20 14 15 14 27 21 27 17 0 -5 7 -3 15 4 13 11 13 15 3 21 -9 6 -9 9 -1 9 6
0 14 -4 18 -10 3 -5 13 -6 22 -3 12 5 14 3 9 -8 -4 -8 4 -1 19 14 14 16 31 30
38 31 7 1 18 6 26 10 10 6 12 5 7 -2 -4 -7 -1 -12 9 -12 10 0 13 5 9 13 -4 6
3 3 17 -8 15 -13 19 -14 11 -3 -9 11 -10 18 -2 23 6 3 7 12 4 18 -4 7 -3 8 2
4 5 -5 9 -14 9 -19 0 -6 7 -13 15 -15 9 -3 11 -1 5 4 -5 4 -11 17 -12 28 -1
20 -1 20 13 1 8 -11 14 -15 14 -9 0 15 67 22 82 8 7 -5 6 -2 -2 8 -7 10 -18
16 -25 13 -6 -2 -12 2 -12 9 0 7 6 11 13 8 6 -2 15 1 19 6 3 6 10 9 14 7 4 -3
19 -7 33 -10 26 -4 31 6 14 33 -6 8 1 7 18 -4 25 -17 26 -17 34 5 8 21 9 21
25 5 9 -9 17 -13 17 -8 0 5 -4 13 -10 19 -6 6 -3 10 10 11 13 1 18 -3 14 -10
-3 -7 6 0 20 16 28 31 38 34 29 11 -4 -12 2 -10 20 7 27 23 39 41 14 20 -10
-8 -14 -7 -14 2 0 8 12 13 29 13 15 0 28 -4 28 -9 0 -5 9 1 20 14 10 13 19 20
20 15 0 -5 6 -3 14 4 8 6 13 17 10 24 -3 9 3 13 18 13 46 1 50 2 43 23 -4 11
-3 20 2 19 21 -4 34 2 27 13 -5 7 -3 8 6 3 10 -6 9 -11 -5 -22 -11 -7 -15 -13
-9 -13 5 0 18 7 28 15 10 8 23 12 29 8 6 -3 7 -1 3 6 -4 6 -12 9 -17 6 -5 -4
-9 -2 -9 4 0 11 38 26 56 23 14 -3 27 26 18 40 -4 6 2 6 14 -1 14 -7 23 -8 27
-1 4 6 11 8 16 5 5 -3 6 2 2 11 -5 13 -3 15 7 9 9 -5 11 -4 6 3 -9 16 7 15 22
0 7 -7 12 -8 12 -4 0 5 -8 15 -17 23 -10 7 -13 13 -8 12 28 -4 37 1 27 14 -8
10 -6 13 8 13 10 0 17 -3 15 -6 -2 -4 2 -7 9 -7 8 0 11 10 9 26 -3 15 -1 22 4
16 12 -15 40 -14 40 0 0 7 -5 12 -11 11 -6 -2 -8 -1 -3 1 4 3 4 10 0 16 -4 7
5 4 19 -5 19 -13 29 -15 34 -6 4 6 3 8 -3 5 -6 -4 -17 1 -24 10 -8 9 -9 14 -3
10 11 -6 29 19 26 35 -1 5 1 7 6 7 22 -4 34 3 29 15 -4 10 -1 13 9 9 11 -4 12
-9 4 -18 -8 -9 -8 -15 0 -20 6 -4 9 -1 8 7 -2 7 3 12 10 10 10 -2 10 2 2 18
-8 14 -8 20 0 20 6 0 8 5 4 12 -4 6 -3 8 4 4 6 -3 15 2 21 11 6 10 11 13 11 7
0 -6 -7 -17 -15 -24 -17 -14 -20 -30 -4 -30 5 0 8 4 5 9 -6 9 18 34 25 26 3
-2 4 9 3 25 -1 22 2 27 14 23 8 -4 13 -2 9 3 -3 6 -1 16 5 24 8 12 9 12 4 -2
-3 -10 -1 -18 4 -18 6 0 10 5 10 11 0 5 6 7 13 3 8 -5 8 -2 -2 9 -8 11 -9 17
-3 17 7 0 9 7 5 17 -6 15 -5 16 9 3 9 -8 13 -19 10 -24 -3 -5 0 -6 5 -3 6 4
10 20 9 36 -2 26 0 28 17 19 12 -6 17 -6 13 0 -3 5 1 15 9 22 12 10 13 16 4
27 -10 11 -9 12 5 7 19 -7 21 6 4 26 -7 8 -2 6 11 -5 14 -11 21 -14 17 -7 -4
6 -2 12 3 12 6 0 11 -5 11 -12 0 -6 3 -8 7 -5 3 4 -2 16 -12 27 -18 20 -18 21
1 14 17 -7 18 -6 4 12 -11 15 -11 16 0 7 17 -15 34 -17 25 -3 -3 6 -1 10 5 10
8 0 10 9 6 24 -5 19 0 26 26 39 18 9 37 13 43 10 5 -4 7 -3 3 2 -4 4 -3 14 3
21 7 8 6 14 -2 20 -8 5 -9 3 -4 -6 5 -9 4 -11 -4 -6 -7 4 -10 2 -9 -5 2 -6 -4
-14 -12 -16 -13 -4 -13 -3 0 6 8 6 11 11 6 11 -5 0 -3 6 4 14 6 8 19 12 28 9
14 -6 15 -4 4 9 -11 13 -8 15 20 12 24 -3 29 -1 18 6 -12 8 -13 10 -1 10 8 0
11 3 8 6 -4 4 -13 1 -22 -6 -9 -8 -15 -8 -15 -2 0 6 9 14 20 17 11 3 20 11 20
16 0 6 -5 7 -12 3 -6 -4 -8 -3 -4 4 3 6 16 9 27 7 18 -4 19 -2 7 12 -11 14
-11 16 1 8 11 -6 13 -4 8 8 -3 10 -2 17 2 17 5 0 11 -5 13 -10 2 -6 9 -1 15
10 10 16 10 18 0 14 -8 -3 -14 2 -14 10 0 11 6 12 24 5 18 -7 22 -6 16 4 -4 6
-8 19 -10 27 -1 10 3 9 13 -4 14 -19 14 -19 14 1 0 12 8 23 20 26 11 3 20 9
19 14 -4 21 2 33 17 33 14 0 15 2 3 17 -13 15 -12 15 11 3 23 -12 24 -12 11 3
-9 12 -10 17 -2 17 7 0 9 6 6 13 -4 6 1 3 9 -7 18 -22 21 -14 6 14 -8 16 -6
18 16 15 15 -1 23 2 21 9 -3 6 -10 10 -16 8 -7 -1 -10 2 -6 7 3 6 13 7 23 4
15 -6 15 -5 3 10 -12 15 -12 17 3 11 11 -4 16 -2 14 7 -2 8 4 15 12 15 32 3
34 5 20 14 -13 8 -12 10 2 10 10 0 17 3 17 8 -3 19 3 22 24 11 20 -11 21 -11
9 4 -11 13 -10 16 8 22 18 6 19 9 8 22 -12 15 -10 15 10 4 27 -15 42 -7 22 12
-10 9 -11 9 -6 0 10 -17 1 -16 -13 1 -9 11 -7 13 11 12 13 0 27 -5 31 -11 4
-6 7 -1 5 10 -1 11 1 21 6 22 5 1 13 7 18 15 8 10 9 10 5 -2 -2 -8 -10 -14
-16 -12 -7 1 -9 -2 -6 -9 5 -7 17 -2 34 15 15 15 30 23 34 19 4 -3 7 2 7 12 0
17 -1 17 -20 0 -23 -20 -28 -11 -6 11 8 8 22 11 31 8 10 -4 15 -2 13 6 -2 7 3
15 11 18 9 3 11 0 6 -8 -6 -9 -4 -11 4 -6 7 5 10 14 7 22 -3 8 -1 14 4 14 6 0
10 -4 10 -10 0 -5 5 -10 11 -10 5 0 7 5 4 10 -3 6 -1 10 4 10 6 0 10 3 10 8
-3 18 2 22 20 12 14 -7 22 -7 26 0 4 6 10 8 14 6 4 -3 7 5 7 17 -1 23 3 24 44
12 23 -7 23 -7 7 9 -23 24 -21 29 6 15 20 -11 21 -11 8 5 -12 14 -12 16 4 10
11 -5 16 -4 12 3 -3 5 0 10 8 10 11 0 12 -5 4 -21 -10 -21 -10 -21 6 -1 8 11
13 26 10 34 -4 11 -3 11 9 2 8 -7 12 -20 10 -29 -5 -15 -4 -14 6 1 6 9 15 15
20 12 4 -3 11 2 14 11 3 8 10 13 15 9 5 -3 12 -1 16 5 4 6 11 7 17 4 7 -4 8
-2 4 5 -6 9 -11 9 -21 1 -9 -8 -14 -7 -18 3 -6 15 30 17 52 3 10 -6 12 -6 7 2
-10 16 7 15 23 0 11 -11 12 -10 5 2 -5 8 -10 23 -11 33 -3 15 -1 16 11 5 8 -7
11 -17 8 -22 -3 -5 0 -6 7 -2 7 5 10 14 8 20 -3 7 1 13 9 13 9 0 13 -6 9 -15
-4 -12 -3 -13 10 -2 8 7 12 17 8 24 -4 7 -1 7 7 -1 11 -10 11 -15 0 -30 -8
-10 0 -4 18 14 18 17 40 30 50 28 9 -1 11 0 5 2 -7 3 -13 11 -13 19 0 9 5 12
12 8 7 -4 8 -3 4 5 -4 6 -11 9 -16 6 -4 -3 -6 5 -2 17 3 14 2 19 -6 14 -16
-10 -15 6 1 24 10 12 9 12 -5 1 -18 -14 -24 -5 -18 24 1 6 -2 7 -6 3 -4 -4
-14 -2 -22 4 -17 15 -44 20 -36 7 3 -5 10 -6 16 -3 7 4 8 2 4 -4 -13 -22 -42
1 -37 30 0 4 -7 4 -16 1 -11 -4 -14 -3 -9 5 5 8 1 10 -10 5 -10 -4 -15 -2 -11
4 3 5 0 10 -7 10 -11 0 -12 -4 -3 -18 6 -10 15 -15 21 -12 5 4 6 1 1 -7 -6
-10 -11 -10 -20 3 -7 10 -18 17 -24 17 -8 0 -10 8 -6 23 5 16 4 18 -3 8 -6 -8
-17 -11 -26 -8 -9 4 -19 6 -23 6 -4 0 -11 8 -15 18 -7 16 -8 16 -5 -2 2 -11 9
-19 16 -17 7 1 10 -2 6 -8 -8 -13 -46 6 -42 22 1 6 -5 13 -13 15 -13 4 -13 3
0 -6 13 -9 13 -11 -2 -11 -10 0 -18 -6 -18 -12 0 -7 -10 2 -21 20 -22 33 -35
43 -26 17 4 -8 2 -17 -4 -20 -5 -4 -6 -11 -3 -17 4 -6 2 -8 -4 -4 -6 3 -9 15
-7 26 4 23 -10 36 -21 19 -5 -8 -3 -9 6 -4 9 5 11 4 6 -3 -5 -8 -13 -9 -24 -3
-9 5 -26 5 -37 1 -11 -4 -26 -3 -33 3 -8 6 -38 12 -68 12 -30 1 -49 -2 -43 -6
7 -4 17 -5 21 -3 4 3 5 -3 1 -12 -4 -11 -8 -13 -11 -6 -2 7 -13 12 -23 12 -12
0 -17 4 -14 11 4 6 -2 5 -14 -3 -17 -10 -25 -10 -41 0 -22 14 -40 8 -40 -11 0
-7 4 -6 10 3 5 8 12 11 16 7 11 -11 -2 -19 -36 -22 -16 -1 -36 -7 -43 -13 -10
-8 -13 -6 -14 9 -1 10 3 19 8 19 6 0 7 -4 4 -10 -4 -6 1 -7 11 -3 15 6 15 7 0
15 -11 6 -22 6 -30 -1 -9 -7 -17 -7 -26 2 -8 6 -6 2 4 -10 11 -13 17 -23 15
-24 -2 0 -12 -2 -22 -4 -12 -2 -17 1 -13 10 3 9 0 12 -9 8 -8 -3 -12 -9 -9
-14 3 -5 -2 -9 -11 -9 -10 0 -13 -5 -9 -12 4 -7 3 -8 -5 -4 -9 6 -9 11 -1 21
8 10 5 13 -13 11 -13 0 -24 -6 -24 -13 0 -7 5 -9 10 -6 6 4 7 1 3 -6 -6 -9
-13 -8 -27 5 -17 15 -19 15 -25 0 -3 -9 -15 -16 -26 -16 -10 0 -16 -4 -13 -10
3 -5 1 -10 -4 -10 -6 0 -11 4 -11 9 0 5 -8 8 -17 6 -10 -1 -18 -9 -17 -17 1
-18 -28 -17 -51 2 -9 7 -15 9 -14 4 4 -20 -2 -26 -15 -15 -11 9 -16 9 -22 0
-4 -7 -3 -9 4 -5 5 3 12 0 15 -6 3 -10 7 -10 19 -1 12 10 15 10 15 -2 0 -8 -3
-13 -5 -10 -3 3 -16 -2 -29 -10 -13 -9 -23 -11 -23 -5 0 5 5 10 12 10 6 0 9 3
5 6 -3 3 -15 3 -27 -1 -15 -5 -19 -12 -15 -23 4 -11 -1 -10 -15 6 -22 24 -40
31 -21 8 9 -11 8 -15 -4 -20 -9 -3 -13 -11 -9 -17 5 -8 3 -9 -7 -4 -22 14 -49
13 -49 -2 0 -8 -5 -11 -10 -8 -6 4 -7 11 -4 17 4 7 2 8 -5 4 -6 -4 -9 -11 -6
-16 3 -4 -2 -13 -10 -20 -8 -7 -15 -9 -15 -5 0 5 -8 1 -18 -8 -18 -17 -32 -14
-32 7 0 6 4 5 9 -2 6 -10 10 -10 21 3 11 13 10 15 -9 12 -25 -4 -43 -26 -34
-41 3 -5 1 -6 -6 -2 -6 4 -9 12 -6 17 3 5 -1 6 -9 3 -9 -3 -13 -11 -9 -18 4
-6 -2 -4 -12 4 -15 12 -17 12 -10 1 6 -11 4 -13 -8 -8 -9 3 -19 2 -22 -4 -4
-5 -10 -7 -14 -5 -12 8 -52 -34 -45 -46 5 -7 2 -8 -5 -4 -7 5 -10 14 -7 22 3
7 0 16 -6 20 -7 5 -8 2 -3 -6 6 -10 4 -12 -10 -6 -14 5 -16 4 -6 -8 9 -11 8
-15 -6 -21 -28 -13 -44 -14 -37 -4 3 5 9 7 14 4 5 -3 11 -1 14 4 7 11 -13 9
-31 -2 -7 -5 -17 -6 -22 -2 -5 3 -13 0 -17 -6 -4 -8 -9 -7 -16 2 -8 11 -9 11
-5 -1 2 -8 10 -14 16 -12 6 1 11 -2 11 -8 0 -14 -12 -12 -40 7 l-25 17 19 -22
c11 -12 16 -25 13 -29 -4 -3 -7 -1 -7 7 0 10 -4 10 -17 -1 -9 -8 -14 -9 -10
-3 4 7 0 15 -9 18 -8 3 -12 2 -9 -4 3 -6 -1 -10 -10 -10 -9 0 -13 -4 -10 -10
10 -16 -7 -12 -27 7 -15 14 -19 14 -16 3 2 -9 -3 -14 -13 -12 -9 1 -20 -5 -23
-14 -5 -14 -4 -15 8 -5 11 9 16 9 22 -1 4 -7 4 -10 -1 -6 -4 4 -14 3 -22 -3
-7 -6 -13 -8 -13 -3 0 5 -5 2 -11 -6 -9 -13 -10 -12 -5 2 3 10 1 20 -5 23 -5
4 -8 1 -7 -6 2 -6 -3 -14 -11 -17 -9 -3 -11 0 -6 8 5 9 3 10 -11 3 -23 -11
-34 -11 -53 1 -10 7 -12 6 -6 -4 6 -10 4 -12 -8 -7 -10 4 -14 2 -11 -6 2 -8
-4 -13 -17 -14 -17 -2 -18 1 -8 13 10 12 9 13 -5 8 -9 -3 -16 -11 -16 -18 0
-6 -4 -5 -9 4 -6 8 -7 18 -4 24 3 5 1 6 -5 2 -7 -4 -12 -15 -12 -24 -1 -13 -5
-11 -16 8 -8 14 -13 18 -10 9 3 -13 0 -15 -16 -11 -15 4 -17 7 -6 14 9 7 8 8
-5 4 -10 -3 -21 -6 -23 -6 -3 0 -2 -5 2 -11 5 -8 1 -8 -13 0 -11 6 -23 8 -26
4 -4 -3 -9 2 -13 11 -3 9 -10 14 -14 11 -5 -3 -11 -1 -15 5 -4 6 -11 7 -17 4
-7 -4 -8 -2 -4 5 6 9 11 9 22 0 8 -6 14 -8 14 -3 0 5 6 2 13 -6 15 -20 49 -20
54 0 4 12 3 13 -5 1 -11 -15 -36 -6 -27 10 3 5 -2 6 -11 2 -13 -5 -15 -3 -9 8
7 11 6 12 -6 2 -11 -9 -19 -9 -26 -2 -7 7 -15 5 -27 -6 -9 -9 -16 -12 -16 -7
0 5 -12 21 -26 36 -22 22 -29 24 -42 14 -13 -10 -14 -10 -8 0 4 6 4 13 -1 13
-4 1 -21 3 -37 5 -32 3 -49 14 -23 14 10 0 17 3 17 8 0 11 -37 32 -44 24 -11
-10 -37 -11 -30 -1 3 5 9 7 13 5 4 -3 8 1 8 9 0 11 -5 12 -21 3 -19 -10 -20
-10 -7 6 12 14 12 16 -3 10 -9 -3 -16 -11 -16 -17 0 -6 -3 -7 -6 -4 -4 4 -1
14 7 24 12 14 12 16 0 8 -9 -5 -18 -2 -27 9 -6 9 -21 18 -31 19 -11 0 -20 7
-20 14 0 10 4 10 16 0 14 -10 14 -10 4 4 -7 9 -9 19 -5 23 4 4 2 7 -3 6 -6 -1
-13 -1 -17 0 -16 5 -28 8 -45 9 -13 1 -14 4 -6 9 9 5 6 11 -9 21 -18 11 -20
11 -15 -3 4 -10 1 -13 -8 -9 -8 3 -13 9 -10 13 3 5 2 16 -1 25 -6 14 -8 14
-28 -2 -11 -10 -15 -11 -8 -3 17 20 15 35 -3 20 -9 -7 -18 -10 -22 -6 -3 3 -1
6 5 6 7 0 12 8 11 18 0 11 -2 13 -6 4 -4 -10 -9 -8 -20 7 -8 12 -11 27 -7 34
5 8 2 7 -10 -2 -13 -11 -14 -16 -4 -22 10 -7 9 -9 -3 -9 -9 0 -20 7 -23 16 -3
8 -10 12 -16 9 -17 -10 -11 7 8 22 15 13 15 13 -5 4 -26 -13 -36 -14 -29 -3 3
4 -7 8 -22 8 -20 -1 -27 4 -26 17 1 9 -2 17 -7 17 -5 0 -9 -10 -10 -22 0 -13
-3 -17 -6 -10 -2 6 -10 9 -16 6 -8 -5 -8 -2 1 7 17 18 15 34 -3 19 -12 -10
-15 -10 -15 0 0 10 -3 10 -14 1 -11 -9 -16 -9 -22 0 -5 8 -3 9 7 4 12 -7 12
-6 1 7 -8 10 -20 14 -29 11 -12 -5 -14 -3 -8 8 7 11 6 12 -6 3 -23 -17 -66 -3
-53 18 4 7 2 8 -4 4 -9 -5 -9 -13 -2 -27 6 -11 7 -19 2 -19 -6 0 -12 8 -15 19
-3 13 -16 20 -45 22 -32 4 -39 1 -35 -11 2 -8 -2 -5 -8 8 -7 12 -20 22 -31 22
-10 0 -18 4 -18 8 0 5 -6 9 -14 9 -8 0 -12 -7 -9 -16 3 -11 0 -10 -11 3 -14
18 -21 15 -17 -7 1 -5 -3 -6 -9 -2 -6 3 -7 11 -4 17 5 7 1 9 -9 5 -8 -3 -21 0
-27 8 -9 11 -16 12 -31 2 -11 -7 -17 -18 -14 -25 3 -7 0 -10 -5 -7 -6 3 -10
14 -10 23 0 14 -2 13 -13 -3 -11 -14 -16 -15 -22 -5 -5 8 -4 11 2 7 5 -3 10 0
10 8 0 11 -4 12 -14 4 -7 -6 -24 -9 -38 -7 -22 5 -23 3 -13 -10 11 -13 11 -14
-2 -7 -21 13 -39 15 -46 4 -3 -5 -10 -9 -17 -9 -6 0 -3 6 7 13 17 13 18 14 2
20 -10 4 -15 3 -11 -3 3 -6 -1 -10 -10 -10 -9 0 -14 4 -11 8 3 5 -1 9 -9 9 -8
0 -12 -4 -10 -8 3 -4 -11 -7 -30 -7 -19 0 -35 4 -35 10 0 5 -7 3 -15 -6 -18
-18 -45 -11 -46 13 0 13 -2 13 -6 1 -9 -22 -25 -30 -43 -20 -9 5 -22 5 -30 0
-7 -4 -23 -6 -34 -3 -12 2 -28 5 -36 5 -8 0 -20 5 -27 10 -7 6 -15 3 -21 -8
-11 -19 -42 -28 -42 -12 0 6 8 7 18 3 13 -5 14 -4 5 6 -10 10 -18 8 -39 -12
-25 -23 -26 -23 -15 -2 7 14 8 24 1 28 -10 6 -11 5 -14 -14 -2 -14 -16 -26
-16 -14 0 5 -7 10 -15 10 -8 0 -12 -4 -9 -9 3 -4 1 -8 -5 -8 -5 0 -12 6 -15
13 -4 6 -5 3 -3 -8 3 -16 -1 -21 -19 -21 -12 0 -21 3 -18 7 6 11 -21 18 -36 9
-9 -6 -8 -10 6 -19 24 -14 9 -14 -17 0 -11 5 -17 14 -14 20 10 15 -2 10 -16
-8 -8 -9 -9 -14 -3 -10 6 3 11 0 11 -8 0 -9 -5 -11 -11 -7 -6 5 -25 8 -43 7
-25 -2 -30 1 -26 14 3 13 2 12 -7 -2 -6 -9 -16 -14 -22 -11 -7 4 -8 2 -4 -5 4
-6 11 -9 16 -6 5 3 11 1 15 -4 3 -6 -5 -8 -19 -5 -17 3 -28 -2 -35 -13 -10
-17 -10 -17 -11 -1 0 12 -5 15 -17 11 -11 -4 -14 -3 -9 6 4 6 16 9 27 6 10 -4
19 -3 19 2 0 12 -38 14 -45 2 -4 -5 -11 -7 -16 -4 -13 9 -11 -2 4 -17 11 -11
4 -13 -44 -13 -31 0 -55 3 -52 8 2 4 -6 11 -19 16 -13 6 -17 10 -9 10 8 1 23
-7 33 -16 17 -15 18 -15 13 0 -4 9 -16 19 -27 23 -15 5 -19 13 -16 35 l5 29
-25 -22 -25 -23 17 26 c14 23 14 28 2 38 -11 9 -16 9 -22 0 -5 -8 -3 -9 6 -4
9 6 11 4 5 -5 -6 -9 -4 -11 5 -5 9 5 11 4 6 -4 -10 -16 -39 6 -32 24 2 7 -4
19 -15 28 -10 9 -19 13 -19 7 0 -5 7 -13 16 -18 15 -8 14 -10 -2 -16 -10 -4
-15 -4 -12 0 4 3 0 13 -8 21 -8 8 -12 18 -9 23 6 9 -10 7 -39 -5 -11 -5 -21
-3 -26 5 -6 10 -9 9 -13 -1 -4 -12 -7 -11 -16 1 -9 12 -10 9 -7 -12z m90 -9
c-3 -5 -10 -7 -15 -3 -5 3 -7 10 -3 15 3 5 10 7 15 3 5 -3 7 -10 3 -15z m700
-75 c3 -8 2 -12 -4 -9 -6 3 -10 10 -10 16 0 14 7 11 14 -7z m556 -3 c0 -4 -7
-8 -15 -8 -16 0 -20 9 -9 20 8 8 24 -1 24 -12z m130 -27 c0 -2 -9 -4 -20 -4
-11 0 -20 4 -20 9 0 5 9 7 20 4 11 -3 20 -7 20 -9z m203 -49 c-3 -9 -8 -14
-10 -11 -3 3 -2 9 2 15 9 16 15 13 8 -4z m2457 -91 c0 -8 -19 -13 -24 -6 -3 5
1 9 9 9 8 0 15 -2 15 -3z m-4229 -31 c13 -16 12 -17 -3 -4 -10 7 -18 15 -18
17 0 8 8 3 21 -13z m3793 -29 c3 -8 2 -12 -4 -9 -6 3 -10 10 -10 16 0 14 7 11
14 -7z m895 -78 c0 -7 -2 -6 -6 2 -2 6 -9 10 -14 6 -5 -3 -9 2 -9 12 0 13 3
14 15 4 8 -7 15 -18 14 -24z m-2514 15 c3 -5 1 -12 -5 -16 -5 -3 -10 1 -10 9
0 18 6 21 15 7z m2536 -104 c-10 -9 -11 -8 -5 6 3 10 9 15 12 12 3 -3 0 -11
-7 -18z m-2376 -17 c3 -5 1 -10 -4 -10 -6 0 -11 5 -11 10 0 6 2 10 4 10 3 0 8
-4 11 -10z m941 -2 c4 -6 3 -8 -4 -4 -5 3 -12 0 -15 -6 -3 -10 -8 -10 -18 1
-8 8 -9 11 -2 7 6 -3 14 -2 18 4 8 13 12 13 21 -2z m-826 -81 c10 -20 10 -20
-3 -5 -8 10 -16 16 -19 13 -2 -3 -5 2 -5 10 0 19 14 10 27 -18z m648 8 c-3 -3
-9 2 -12 12 -6 14 -5 15 5 6 7 -7 10 -15 7 -18z m1412 10 c0 -2 -8 -9 -18 -14
-14 -7 -19 -6 -19 3 0 6 9 13 19 13 10 1 18 0 18 -2z m-1700 -80 c0 -2 -6 -8
-13 -14 -10 -8 -14 -7 -14 2 0 8 6 14 14 14 7 0 13 -1 13 -2z m1494 -21 c3 -8
2 -12 -4 -9 -6 3 -10 10 -10 16 0 14 7 11 14 -7z m-500 -452 c3 -5 -1 -9 -9
-9 -8 0 -12 4 -9 9 3 4 7 8 9 8 2 0 6 -4 9 -8z m-3677 -178 c-3 -3 -12 -4 -19
-1 -8 3 -5 6 6 6 11 1 17 -2 13 -5z m49 -279 c-1 -8 -5 -17 -8 -21 -5 -4 -4
16 1 34 3 9 9 -1 7 -13z m3265 -8 c-10 -9 -11 -8 -5 6 3 10 9 15 12 12 3 -3 0
-11 -7 -18z m-411 -367 c0 -5 -5 -10 -11 -10 -5 0 -7 5 -4 10 3 6 8 10 11 10
2 0 4 -4 4 -10z m-255 -189 c3 -5 2 -12 -3 -15 -5 -3 -9 1 -9 9 0 17 3 19 12
6z m-35 -26 c-7 -9 -15 -13 -17 -11 -6 6 20 36 26 30 2 -2 -2 -10 -9 -19z
m-120 -61 c0 -8 -19 -13 -24 -6 -3 5 1 9 9 9 8 0 15 -2 15 -3z m-93 -39 c0 -8
-4 -12 -9 -9 -5 3 -6 10 -3 15 9 13 12 11 12 -6z m-344 -146 c-8 -8 -13 -7
-18 2 -5 8 -4 10 3 5 7 -4 12 -2 12 5 0 7 3 9 7 6 4 -4 2 -12 -4 -18z m-81
-20 c2 -2 1 -3 -1 -1 -2 1 -14 -6 -25 -15 -15 -14 -18 -14 -8 -2 6 9 9 18 6
22 -3 3 1 4 10 3 8 -1 17 -4 18 -7z m-105 -41 c-3 -8 -6 -5 -6 6 -1 11 2 17 5
13 3 -3 4 -12 1 -19z m-1717 -80 c0 -6 -6 -5 -15 2 -8 7 -15 14 -15 16 0 2 7
1 15 -2 8 -4 15 -11 15 -16z m1323 -29 c-8 -8 -13 -7 -18 2 -5 8 -4 10 3 5 7
-4 12 -2 12 5 0 7 3 9 7 6 4 -4 2 -12 -4 -18z m-559 -175 c3 -8 2 -12 -4 -9
-6 3 -10 10 -10 16 0 14 7 11 14 -7z m-124 -48 c0 -2 -7 -7 -16 -10 -8 -3 -12
-2 -9 4 6 10 25 14 25 6z m-600 -65 c0 -6 -4 -12 -8 -15 -5 -3 -9 1 -9 9 0 8
4 15 9 15 4 0 8 -4 8 -9z m443 -578 c8 -8 -12 -33 -26 -33 -6 0 -2 7 9 16 16
13 16 15 2 10 -10 -3 -18 -1 -18 4 0 11 23 13 33 3z m3 -95 c4 -7 4 -10 -1 -6
-4 4 -15 2 -24 -5 -14 -11 -14 -10 -2 6 16 20 18 21 27 5z m-333 -123 c-7 -21
-12 -19 -10 4 0 11 5 18 9 15 4 -3 5 -11 1 -19z m4 -130 c0 -8 -4 -12 -9 -9
-5 3 -6 10 -3 15 9 13 12 11 12 -6z m413 -398 c0 -7 -4 -6 -10 3 -8 12 -10 12
-10 1 0 -8 -3 -12 -6 -8 -9 9 6 28 17 22 5 -4 9 -12 9 -18z m-325 -295 c-3 -3
-11 0 -18 7 -9 10 -8 11 6 5 10 -3 15 -9 12 -12z m362 -12 c-1 -10 -5 -17 -9
-14 -4 3 -4 12 -1 22 6 15 5 16 -13 2 -18 -14 -18 -14 -5 2 16 21 30 15 28
-12z m17 -165 c-4 -8 -11 -15 -16 -15 -6 0 -5 6 2 15 7 8 14 15 16 15 2 0 1
-7 -2 -15z m-227 -162 c-4 -3 -2 -12 5 -20 8 -11 7 -12 -6 -7 -18 7 -22 34 -4
34 6 0 8 -3 5 -7z"/>
<path d="M1144 4929 c1 -7 10 -13 19 -15 9 -1 15 2 11 7 -3 5 -9 7 -14 4 -4
-3 -11 0 -13 5 -3 6 -4 5 -3 -1z"/>
<path d="M1198 4933 c7 -3 16 -2 19 1 4 3 -2 6 -13 5 -11 0 -14 -3 -6 -6z"/>
<path d="M1230 4919 c0 -5 5 -7 10 -4 6 3 10 8 10 11 0 2 -4 4 -10 4 -5 0 -10
-5 -10 -11z"/>
<path d="M896 4895 c4 -8 8 -15 10 -15 2 0 4 7 4 15 0 8 -4 15 -10 15 -5 0 -7
-7 -4 -15z"/>
<path d="M1926 4862 c-3 -5 1 -9 9 -9 8 0 12 4 9 9 -3 4 -7 8 -9 8 -2 0 -6 -4
-9 -8z"/>
<path d="M4469 4743 c-13 -16 -12 -17 4 -4 16 13 21 21 13 21 -2 0 -10 -8 -17
-17z"/>
<path d="M4196 4737 c3 -10 9 -15 12 -12 3 3 0 11 -7 18 -10 9 -11 8 -5 -6z"/>
<path d="M4611 4724 c0 -11 3 -14 6 -6 3 7 2 16 -1 19 -3 4 -6 -2 -5 -13z"/>
<path d="M3866 4653 c-6 -14 -5 -15 5 -6 7 7 10 15 7 18 -3 3 -9 -2 -12 -12z"/>
<path d="M3696 4601 c-4 -5 -2 -12 3 -15 5 -4 12 -2 15 3 4 5 2 12 -3 15 -5 4
-12 2 -15 -3z"/>
<path d="M186 4578 c3 -4 9 -8 15 -8 5 0 9 4 9 8 0 5 -7 9 -15 9 -8 0 -12 -4
-9 -9z"/>
<path d="M3610 4554 c0 -8 5 -12 10 -9 6 4 8 11 5 16 -9 14 -15 11 -15 -7z"/>
<path d="M2579 4473 c-13 -16 -12 -17 4 -4 16 13 21 21 13 21 -2 0 -10 -8 -17
-17z"/>
<path d="M2686 4408 c3 -5 10 -6 15 -3 13 9 11 12 -6 12 -8 0 -12 -4 -9 -9z"/>
<path d="M4550 4341 c0 -6 4 -13 10 -16 6 -3 7 1 4 9 -7 18 -14 21 -14 7z"/>
<path d="M228 4293 c7 -3 16 -2 19 1 4 3 -2 6 -13 5 -11 0 -14 -3 -6 -6z"/>
<path d="M227 4259 c7 -7 15 -10 18 -7 3 3 -2 9 -12 12 -14 6 -15 5 -6 -5z"/>
<path d="M4154 4020 c0 -13 4 -16 10 -10 7 7 7 13 0 20 -6 6 -10 3 -10 -10z"/>
<path d="M3774 3565 c-10 -8 -14 -15 -7 -15 6 0 15 5 18 10 4 6 11 7 17 4 7
-4 8 -2 4 4 -9 15 -8 15 -32 -3z"/>
<path d="M330 3420 c0 -5 5 -10 11 -10 5 0 7 5 4 10 -3 6 -8 10 -11 10 -2 0
-4 -4 -4 -10z"/>
<path d="M3420 3158 c-10 -21 -10 -21 3 -6 8 10 18 14 22 10 5 -4 5 -1 1 6
-10 17 -14 15 -26 -10z"/>
<path d="M2635 2680 c-3 -5 -1 -10 4 -10 6 0 11 5 11 10 0 6 -2 10 -4 10 -3 0
-8 -4 -11 -10z"/>
<path d="M428 2673 c6 -2 9 -10 6 -15 -4 -7 -2 -8 5 -4 13 9 5 26 -12 25 -9 0
-8 -2 1 -6z"/>
<path d="M2426 2591 c-4 -5 -2 -12 3 -15 5 -4 12 -2 15 3 4 5 2 12 -3 15 -5 4
-12 2 -15 -3z"/>
<path d="M453 2504 c0 -16 13 -19 21 -5 3 5 0 11 -7 14 -8 3 -14 -1 -14 -9z"/>
<path d="M2111 2474 c0 -11 3 -14 6 -6 3 7 2 16 -1 19 -3 4 -6 -2 -5 -13z"/>
<path d="M2055 2469 c-4 -6 -4 -13 -1 -16 3 -4 6 -1 6 6 0 7 5 9 12 5 7 -4 8
-3 4 4 -9 15 -13 15 -21 1z"/>
<path d="M1710 2358 c0 -4 4 -8 9 -8 6 0 12 4 15 8 3 5 -1 9 -9 9 -8 0 -15 -4
-15 -9z"/>
<path d="M466 2345 c4 -8 11 -15 16 -15 6 0 5 6 -2 15 -7 8 -14 15 -16 15 -2
0 -1 -7 2 -15z"/>
<path d="M1618 2342 c4 -10 7 -12 10 -4 2 7 9 9 15 5 7 -3 8 -2 4 2 -14 16
-36 14 -29 -3z"/>
<path d="M1395 2289 c-4 -5 -4 -13 -1 -16 3 -4 6 0 6 8 0 11 2 11 10 -1 6 -9
10 -10 10 -3 0 17 -17 25 -25 12z"/>
<path d="M1295 2240 c-3 -5 -1 -10 4 -10 6 0 11 5 11 10 0 6 -2 10 -4 10 -3 0
-8 -4 -11 -10z"/>
<path d="M1080 2131 c0 -6 4 -13 10 -16 6 -3 7 1 4 9 -7 18 -14 21 -14 7z"/>
<path d="M508 2048 c-7 -18 1 -38 15 -38 8 0 8 3 0 11 -6 6 -9 18 -6 25 3 8 3
14 0 14 -3 0 -7 -6 -9 -12z"/>
<path d="M931 2026 c-9 -11 -9 -16 0 -22 7 -4 9 -3 5 4 -3 5 0 12 6 15 7 2 10
7 7 11 -3 4 -12 0 -18 -8z"/>
<path d="M524 1952 c3 -5 0 -13 -6 -15 -9 -4 -10 -6 -1 -6 17 -1 25 16 12 25
-7 4 -9 3 -5 -4z"/>
<path d="M935 1780 c3 -5 8 -10 11 -10 2 0 4 5 4 10 0 6 -5 10 -11 10 -5 0 -7
-4 -4 -10z"/>
<path d="M946 1688 c3 -5 10 -6 15 -3 13 9 11 12 -6 12 -8 0 -12 -4 -9 -9z"/>
<path d="M955 1600 c3 -5 8 -10 11 -10 2 0 4 5 4 10 0 6 -5 10 -11 10 -5 0 -7
-4 -4 -10z"/>
<path d="M602 1281 c2 -7 7 -12 11 -12 12 1 9 15 -3 20 -7 2 -11 -2 -8 -8z"/>
<path d="M1008 1143 c7 -3 16 -2 19 1 4 3 -2 6 -13 5 -11 0 -14 -3 -6 -6z"/>
<path d="M634 1003 c2 -10 6 -17 10 -16 15 3 16 11 2 22 -12 10 -14 9 -12 -6z"/>
<path d="M1030 960 c0 -5 5 -10 10 -10 6 0 10 5 10 10 0 6 -4 10 -10 10 -5 0
-10 -4 -10 -10z"/>
<path d="M655 869 c-4 -6 -5 -12 -2 -15 2 -3 7 2 10 11 7 17 1 20 -8 4z"/>
<path d="M1070 700 c0 -5 5 -10 11 -10 5 0 7 5 4 10 -3 6 -8 10 -11 10 -2 0
-4 -4 -4 -10z"/>
<path d="M1080 576 c0 -2 7 -9 15 -16 9 -7 15 -8 15 -2 0 5 -7 12 -15 16 -8 3
-15 4 -15 2z"/>
<path d="M1106 448 c3 -5 10 -6 15 -3 13 9 11 12 -6 12 -8 0 -12 -4 -9 -9z"/>
<path d="M713 387 c0 -8 6 -14 14 -14 9 0 10 4 2 14 -6 7 -12 13 -14 13 -1 0
-2 -6 -2 -13z"/>
<path d="M1086 205 c4 -8 11 -15 16 -15 6 0 5 6 -2 15 -7 8 -14 15 -16 15 -2
0 -1 -7 2 -15z"/>
</g>
</svg>
